<svg xmlns="http://www.w3.org/2000/svg" viewBox="0 0 46.9678 40"><g><path d="M15.4236,16.0843a6.1205,6.1205,0,0,1,4.1552,7.8589l-1.8266,5.3951a10.3475,10.3475,0,0,1,5.7317,1.9764,10.3456,10.3456,0,0,1,5.7114-1.976l-1.7837-4.8863a6.1236,6.1236,0,0,1,.381-4.824,6.9816,6.9816,0,0,1,3.7638-3.5533c3.8489-1.0767,16.077-7.1338,8.8973-15.817a.7124.7124,0,0,0-1.1021.0056C38.2,1.6874,35.2927,4.8708,32.3538,4.809c-3.4132-.0719-7.1163.9423-8.8683,3.4709-1.7549-2.5265-5.4592-3.5365-8.8723-3.4607-2.9389.0653-5.85-3.1148-7.003-4.5373A.7116.7116,0,0,0,6.5081.2776C-.6617,8.969,11.5733,15.0122,15.4236,16.0843Z" fill="#f5f9ff"/><path d="M46.3722,35.2593a6.3671,6.3671,0,0,0-9.0045,0,2.3,2.3,0,0,1-3.2529,0,6.3746,6.3746,0,0,0-9.0045,0,2.3,2.3,0,0,1-3.2529,0,6.3746,6.3746,0,0,0-9.0045,0,2.3028,2.3028,0,0,1-3.2529,0,6.3745,6.3745,0,0,0-9.0044,0,2.0335,2.0335,0,0,0,2.8758,2.8758,2.3028,2.3028,0,0,1,3.253,0,6.3743,6.3743,0,0,0,9.0044,0,2.3024,2.3024,0,0,1,3.2528,0,6.3671,6.3671,0,0,0,9.0044,0,2.3027,2.3027,0,0,1,3.2529,0,6.3671,6.3671,0,0,0,9.0044,0,2.3,2.3,0,0,1,3.253,0,2.0335,2.0335,0,0,0,2.8759-2.8758Z" fill="#f5f9ff"/></g></svg>